<?xml version="1.0" encoding="utf-8"?>
<!-- Generator: Adobe Illustrator 26.3.1, SVG Export Plug-In . SVG Version: 6.00 Build 0)  -->
<svg version="1.1" id="Layer_1" xmlns="http://www.w3.org/2000/svg" xmlns:xlink="http://www.w3.org/1999/xlink" x="0px" y="0px"
	 viewBox="0 0 368.5 38.5" style="enable-background:new 0 0 368.5 38.5;" xml:space="preserve">
<style type="text/css">
	.st0{fill-rule:evenodd;clip-rule:evenodd;fill:#DE222B;}
	.st1{fill-rule:evenodd;clip-rule:evenodd;fill:#00784B;}
	.st2{fill-rule:evenodd;clip-rule:evenodd;fill:#FFFFFF;}
	.st3{fill:#FFFFFF;}
</style>
<g>
	<polygon class="st0" points="341.2,38.2 213.7,38.2 240.5,0.3 368,0.3 	"/>
	<polygon class="st1" points="213.7,38.2 0.5,38.2 27.1,0.3 240.7,0.3 	"/>
	<path class="st2" d="M241.3,14.7c0,0-2.4,0-2.5-0.9c-0.2-0.9,2.7-1.3,2.7-1.3s16.5-2,31.4,0c0,0,3.5,0.6,5.6,0.3
		c2.1-0.4,16.3-3.3,25.7-2.1c9.4,1.2,9.6,3.1,13,3.6c1.9,0.3,4.8-2.2,4.8-2.2l0.9,1.2c0,0,0.3,0.4,0.6,0.3c0.4-0.1,3.7,0.1,4.6,2.6
		c1,2.5,1.3,3.4,1.3,3.4s0.5,0.5-0.1,1.4c-0.6,1-2.5,2.3-2.5,2.3s-0.5,0.9-1.7,0c-1.1-0.9-1.8-0.7-3.3-0.8c-1.5-0.1-2.8-0.6-4.3-0.4
		c-1.5,0.3-1.1,1.4,0.9,2.8c1.9,1.4,7.6,4.9,7.6,4.9s2.2,0.9,3.4,0.9c1.2,0,3.2,0,3,1.3c-0.2,1.3-2.5,0.9-4.6,0.3
		c-2.1-0.6-12.7-4.8-21.7-6.1c0,0-4.9-1.3-9.1-2.8c-4.2-1.5-8-2.3-11.3-1.1c-3.3,1.3-5.9,2.5-8,3.6c-2.1,1.1-4.6,1.1-7.1,0.9
		c-3.3-0.2-5-0.7-9.6,2.2c-4.5,2.8-5.6,4.1-10.3,3.3c0,0-0.8,0-0.4-0.8l0.8-1.4c0,0,0.1-0.5,1.2-0.6c1.1-0.1,2.8-0.6,3.3-1
		c0.5-0.4,1.4-1,2-1.3c0.6-0.3,2.9-1.6,5.5-4.3c0,0,0.7-1.2,2.5-1.1c1.8,0.1,3.7,0.2,4.9-0.7c1.3-0.9,3.6-2.7,4.1-3.4
		c0.5-0.7,0.6-1.2,0.4-1.6c-0.3-0.4-0.8-1-2-1.3c-1.2-0.3-4.8-0.6-5.6-0.6c0,0-6.3-0.5-11.7-0.5c-5.4,0-12.7,1-13.9,1L241.3,14.7z"
		/>
	<path class="st2" d="M119,30L119,30h-8l2.8-3.8h-5.5l-2.9,3.8h-7.9l13.9-19.3H122c0,0,3.5-0.1,5,2.5c1.5,2.6,0.4,5.4-0.2,6.3
		C126.3,20.4,119,30,119,30 M112.7,20.1L112.7,20.1h5.9l1.3-1.9c0,0,0.2-0.4,0.1-0.8c-0.1-0.4-0.4-0.6-0.9-0.6h-4L112.7,20.1z"/>
	<polygon class="st2" points="94.2,30.1 94.2,30.1 86.2,30.1 92.7,21.1 84.7,25.4 84.2,20.9 77.1,30.1 69.4,30.1 83.4,10.8 
		90.3,10.8 90.8,15.8 99,10.7 108.2,10.7 	"/>
	<path class="st2" d="M67.5,10.8L67.5,10.8h-8.4l-8.7,11.9c0,0-1.6,2.2-0.8,4.3c0.7,2.2,2.8,3.3,4.6,3.5l4.1,0.2
		c0,0,3.6,0.2,5.9-0.8c2.3-1,4.4-3.2,4.6-3.5c0.3-0.3,11.5-15.7,11.5-15.7h-8.8L63,23.1c0,0-0.9,1.4-2.8,1.4c-0.9,0-2.1-1.1-0.8-2.6
		C59.9,21.2,67.5,10.8,67.5,10.8"/>
	<path class="st2" d="M33.3,25.8L33.3,25.8L30,30.1l-7.7,0l13.7-19.2l12.2,0c0,0,3.2-0.2,4.2,2.4c1,2.7-0.9,5.3-0.9,5.3l-2.7,3.7
		c0,0-2.3,3.7-8.2,3.5H33.3z M41,20L41,20c0.9,0,1.7-0.2,2.2-0.5c0.5-0.3,1.5-1.5,1.2-2.4c-0.2-0.7-1.5-0.7-1.5-0.7h-2L38.4,20
		L41,20z"/>
	<polygon class="st2" points="139.9,30.1 139.9,30.1 134.6,30.1 134.4,24.1 129.9,30.1 122.4,30.1 136.2,10.8 140.6,10.8 140.7,18 
		145.9,10.7 153.7,10.7 	"/>
	<polygon class="st2" points="191.9,30.1 191.9,30.1 205.6,10.8 214.9,10.8 205.1,24.6 212.6,24.6 208.7,30.1 	"/>
	<path class="st2" d="M199.4,11.2c-1.1-0.6-3-0.9-5.2-0.9h-2.7h-2.7c-0.4,0-0.7,0-1.1,0l-7,0l-3.8,4.9c-0.5,0.6-0.9,1.1-1.4,1.8
		l-3.6,5c-2.8,4-1.6,7.9,3.5,7.9l5.2,0c10.5,0,11.6-4.9,18.8-14.4C201,13.8,200.8,12.1,199.4,11.2z M189.3,16.8l-5,6.6
		c-0.6,0.7-1.1,1.2-1.9,1.2l-1.8,0c-0.5,0-0.6-0.3-0.3-0.8l2.9-3.8l2.9-3.9h1.3h1.7C189.6,16,189.6,16.3,189.3,16.8z"/>
	<path class="st2" d="M152.3,16.8l4.2-6.2h7.7c0.2,0,0.4,0,0.7,0h3.8c2.4,0,4.3,0.2,5.4,0.9c1.9,1.1,1.4,2.8,0.2,4.5
		c-0.6,0.9-0.5,0.8-1.2,1.7h-8.8c0.4-0.6,0.3-0.9-0.1-0.9h-2.5c-0.8,0-0.9-0.1-1.5,0.7l-4.7,6.3c-0.3,0.4-0.2,0.9,0.3,0.9h2.5
		c0.7,0,1.2-0.2,1.5-0.7l2.2-3h8.6l-7,9.3h-12c-4.7,0-6.8-2.9-4-6.9l4.1-5.8C151.9,17.2,152.1,17,152.3,16.8L152.3,16.8z"/>
	<g>
		<path class="st3" d="M341.3,38.5H0L26.9,0h341.6L341.3,38.5z M1.1,38H341l26.4-37.4H27.2L1.1,38z"/>
	</g>
</g>
</svg>
